<?xml version="1.0" encoding="UTF-8"?><svg id="Layer_2" xmlns="http://www.w3.org/2000/svg" xmlns:xlink="http://www.w3.org/1999/xlink" viewBox="0 0 800.8 202.3"><defs><style>.cls-1{fill:url(#radial-gradient);}.cls-2{isolation:isolate;}.cls-3{fill:url(#radial-gradient-2);}</style><radialGradient id="radial-gradient" cx="693.5" cy="184.4" fx="693.5" fy="184.4" r="23.1" gradientTransform="translate(0 207.4) scale(1 -1)" gradientUnits="userSpaceOnUse"><stop offset="0" stop-color="#efcd10"/><stop offset="0" stop-color="#d1c62c"/><stop offset=".3" stop-color="#a6bd56"/><stop offset=".5" stop-color="#84b676"/><stop offset=".7" stop-color="#6cb18e"/><stop offset=".9" stop-color="#5eae9c"/><stop offset="1" stop-color="#59ada1"/></radialGradient><radialGradient id="radial-gradient-2" cx="693.2" cy="206.6" fx="693.2" fy="206.6" r="85.5" gradientTransform="translate(0 207.4) scale(1 -1)" gradientUnits="userSpaceOnUse"><stop offset="0" stop-color="#efcd10"/><stop offset=".3" stop-color="#b0c04d"/><stop offset=".5" stop-color="#1ba0de"/><stop offset=".9" stop-color="#95dfba"/></radialGradient></defs><g id="Layer_1-2"><g class="cls-2"><g class="cls-2"><path d="M13.7,100.1c0,1.7,0,3.9-.2,6.7-.2,2.8-.3,5.1-.4,7.2h.6c.6-.8,1.6-2.1,2.9-3.7s2.6-3.2,3.9-4.8c1.3-1.6,2.5-3,3.4-4.1l27.2-28.8h16.4l-34.5,36.4,36.9,48.8h-16.8l-29.6-39.7-9.7,8.4v31.3H0V37h13.8v63.1s-.1,0-.1,0Z"/></g><g class="cls-2"><path d="M183.1,157.8l-16-41h-52.5l-15.8,41h-16.9L133.7,24.7h15l51.6,133.1h-17.3.1ZM147.2,61.8c-.4-1-1-2.8-1.9-5.4s-1.7-5.3-2.5-8.1-1.5-4.9-1.9-6.4c-.6,2.5-1.3,5-1.9,7.5-.7,2.5-1.4,4.9-2,7-.7,2.1-1.3,3.9-1.8,5.4l-15,40.1h42l-14.9-40.1h-.1Z"/><path d="M255.8,157.8h-47.9v-9.7l15.6-3.5V38.6l-15.6-3.7v-9.7h47.9v9.7l-15.6,3.7v106l15.6,3.5v9.7h0Z"/></g><g class="cls-2"><path d="M320.3,56.4c6.6,0,12.5,1.2,17.7,3.7,5.3,2.5,9.7,6.3,13.5,11.3h.9l2.2-13.2h13v101.2c0,9.4-1.6,17.3-4.8,23.7-3.2,6.4-8.1,11.2-14.7,14.4s-14.9,4.8-25.1,4.8-13.8-.5-19.8-1.6-11.4-2.6-16.1-4.7v-15c4.7,2.5,10.2,4.4,16.5,5.8s13.1,2,20.2,2,15.3-2.5,20.1-7.5c4.9-5,7.3-11.9,7.3-20.5v-3.9c0-1.5,0-3.6.2-6.4.1-2.8.2-4.7.4-5.8h-.7c-3.5,5.1-7.8,8.9-12.9,11.3-5.1,2.5-11.1,3.7-17.9,3.7-12.9,0-22.9-4.5-30.2-13.6-7.2-9-10.9-21.7-10.9-37.9s3.6-28.4,10.9-37.8c7.2-9.3,17.2-14,30-14h.2,0ZM322.5,70.2c-5.6,0-10.3,1.5-14.2,4.5-3.9,3-6.9,7.3-8.9,13s-3.1,12.6-3.1,20.8c0,12.3,2.3,21.6,6.8,28.1s11.1,9.7,19.8,9.7,9.4-.6,13-1.9,6.6-3.3,8.9-6.1c2.4-2.8,4.1-6.3,5.2-10.7,1.1-4.3,1.7-9.5,1.7-15.4v-3.9c0-9-1-16.3-3.1-21.9-2-5.6-5.2-9.7-9.6-12.3-4.3-2.6-9.8-3.9-16.5-3.9h0Z"/><path d="M437.6,56.4c8.5,0,15.9,1.9,22,5.6,6.1,3.7,10.8,8.9,14.1,15.7,3.3,6.7,4.9,14.6,4.9,23.7v9.8h-68.1c.2,11.3,3.1,19.8,8.6,25.7s13.2,8.8,23.1,8.8,11.9-.6,16.8-1.8,9.9-2.9,15.1-5.1v14.3c-5.1,2.2-10.1,3.9-15,4.9-5,1.1-10.8,1.6-17.6,1.6s-17.7-1.9-25-5.8c-7.2-3.8-12.9-9.6-16.9-17.2s-6-16.9-6-27.9,1.8-20.2,5.5-28c3.6-7.8,8.8-13.8,15.4-18s14.3-6.3,23.1-6.3h0ZM437.4,69.8c-7.8,0-14,2.5-18.5,7.5s-7.2,12-8.1,20.9h50.7c0-5.7-.9-10.6-2.6-14.9-1.7-4.2-4.4-7.5-7.9-9.9s-8.1-3.6-13.6-3.6Z"/><path d="M551.8,56.4c11.9,0,20.9,2.9,26.9,8.6,6.1,5.8,9.1,15.1,9.1,27.9v64.8h-16.2v-63.7c0-8-1.8-14-5.4-18-3.6-4-9.2-5.9-16.9-5.9-11,0-18.6,3.1-22.8,9.3-4.2,6.2-6.3,15.1-6.3,26.7v51.6h-16.3V58.2h13.2l2.4,13.6h.9c2.2-3.5,5-6.3,8.3-8.6,3.3-2.3,6.9-4,10.9-5.1s8-1.7,12.3-1.7h-.1Z"/><path d="M651.9,146.3c2.5,0,5-.2,7.6-.6s4.7-.9,6.3-1.4v12.4c-1.7.9-4.2,1.6-7.4,2.1-3.2.6-6.3.8-9.3.8-5.2,0-10-.9-14.4-2.7s-8-4.9-10.7-9.4-4.1-10.7-4.1-18.8v-57.9h-14.1v-7.8l14.3-6.5,6.5-21.2h9.7v22.8h28.8v12.6h-28.8v57.6c0,6.1,1.5,10.6,4.4,13.5s6.7,4.4,11.2,4.4h0v.1Z"/><path d="M694,21c2.5,0,4.7.8,6.6,2.5,1.9,1.7,2.9,4.3,2.9,7.9s-1,6.1-2.9,7.8-4.1,2.6-6.6,2.6-5-.9-6.9-2.6-2.8-4.3-2.8-7.8.9-6.2,2.8-7.9c1.9-1.7,4.1-2.5,6.9-2.5ZM702,58.3v99.5h-16.3V58.3h16.3Z"/><path d="M773.5,159.6c-8.8,0-16.6-1.8-23.5-5.4s-12.3-9.2-16.2-16.7-5.8-17.2-5.8-29,2-22.2,6.1-29.9c4.1-7.7,9.6-13.3,16.6-16.9s14.9-5.4,23.9-5.4,10,.5,14.7,1.6,8.5,2.3,11.5,3.8l-5,13.6c-3-1.1-6.4-2.2-10.4-3.2s-7.7-1.5-11.1-1.5c-6.7,0-12.2,1.4-16.5,4.3-4.3,2.8-7.6,7.1-9.7,12.6-2.1,5.6-3.2,12.5-3.2,20.8s1.1,14.7,3.2,20.2c2.1,5.6,5.3,9.8,9.5,12.6s9.5,4.3,15.8,4.3,10.2-.6,14.4-1.7c4.1-1.1,8-2.5,11.4-4.1v14.5c-3.3,1.7-7,3.1-11,4s-8.9,1.4-14.6,1.4h-.1v.1Z"/></g></g><path class="cls-1" d="M693.5,46.2c-12.8,0-23.1-10.4-23.1-23.1s10.4-23.1,23.1-23.1,23.1,10.4,23.1,23.1-10.4,23.1-23.1,23.1h0ZM693.5,5.8c-9.5,0-17.2,7.7-17.2,17.2s7.7,17.2,17.2,17.2,17.2-7.7,17.2-17.2-7.7-17.2-17.2-17.2Z"/><circle class="cls-3" cx="693.5" cy="23" r="18.6"/></g></svg>